<svg xmlns="http://www.w3.org/2000/svg" xmlns:xlink="http://www.w3.org/1999/xlink" preserveAspectRatio="xMidYMid meet" version="1.0" viewBox="-0.0 0.0 105.5 98.4" zoomAndPan="magnify" style="fill: rgb(255, 189, 89);" original_string_length="2738"><g data-name="18" id="__id412_s6lb0jaw7"><path d="M103.717,95.018h-2.258L94.6,86.071V78.258H97.01a1.7,1.7,0,0,0,1.682-1.476l4.414-19.9a1.688,1.688,0,0,0-1.647-2.05v-.008H95.392c.135-1.136.293-2.269.5-3.373.219-1.188.495-2.356.8-3.494A5.072,5.072,0,0,0,99.3,46.832a8.689,8.689,0,0,0,2.73-3.943,12.269,12.269,0,0,0-.588-8.815c-5.874,2.106-9.522,6.136-9.189,9.751A5.755,5.755,0,0,0,93.5,46.813c-.348,1.289-.669,2.633-.925,4.032-.121.659-.219,1.318-.316,1.977a53.879,53.879,0,0,0-3.2-11.711,4.945,4.945,0,0,0,1.162-2.883,8.924,8.924,0,0,0-.959-4.7,9.956,9.956,0,0,0-3.089-4.035A9.65,9.65,0,0,0,80.842,27.6a12.548,12.548,0,0,0-1.18,4.672,12.156,12.156,0,0,0,.546,4.357,8.327,8.327,0,0,0,2.962,4.6,6.951,6.951,0,0,0,2.751,1.144,49.447,49.447,0,0,1,3.16,12.449H84.356a1.7,1.7,0,0,0-1.695,1.694,1.773,1.773,0,0,0,.079.517l4.414,19.891A1.688,1.688,0,0,0,88.8,78.25v.008H91.21v7.813l-6.859,8.947h-6.8q-1.432-5-2.866-9.993a5.62,5.62,0,0,0,4.334-5.468V71.324a.531.531,0,0,0-.15-.374l-.008-.008a.525.525,0,0,0-.374-.15H74.2a.531.531,0,0,0-.374.15l-.008.008a.525.525,0,0,0-.15.374v6.781a1.7,1.7,0,0,1-1.694,1.7H25.307a1.692,1.692,0,0,1-1.7-1.7v-6.78a.529.529,0,0,0-.15-.374l-.008-.008a.525.525,0,0,0-.374-.15H18.792a.531.531,0,0,0-.374.15l-.008.008a.525.525,0,0,0-.15.374V79.56a5.643,5.643,0,0,0,4.4,5.48q-1.466,4.989-2.93,9.978H11.941V42.212l6.857,0a1.692,1.692,0,0,0,1.541-2.378L15.951,30a1.7,1.7,0,0,0-1.6-1.138l-8.209,0a1.715,1.715,0,0,0-.909.269,1.674,1.674,0,0,0-.632.735L.211,39.7A1.677,1.677,0,0,0,0,40.52a1.7,1.7,0,0,0,1.694,1.7l6.858,0V95.018H1.694a1.695,1.695,0,0,0,0,3.389H103.717a1.695,1.695,0,1,0,0-3.389Zm-80.463,0q1.494-4.92,2.987-9.84H71.153q1.437,4.92,2.875,9.84Zm67.959,0h-2.6l2.6-3.391Zm3.386,0V91.627l2.6,3.391ZM46.948,76.413H27V73.438H46.948Zm3.389-2.975H70.281v2.975H50.337Zm19.944-3.387H50.337V59.634a1.422,1.422,0,0,1,1.415-1.418H68.863a1.407,1.407,0,0,1,1,.411l.008.008a1.407,1.407,0,0,1,.411,1Zm-23.336,0H27V59.631a1.411,1.411,0,0,1,.419-1l.061-.064a1.418,1.418,0,0,1,.938-.353H45.53a1.422,1.422,0,0,1,1.415,1.415Zm8.57-32.219H26.1V26.456l10.151-5.445Zm15.667,0H60.649L49.48,28.076l11.387-7.154,10.315,5.534ZM37.658,17.754l9.163,8,13.021-8.18a1.691,1.691,0,0,1,1.758-.094l9.582,5.138V0H26.1V22.619l9.582-5.139A1.69,1.69,0,0,1,37.658,17.754ZM43.29,5.141l.008-.007a7.543,7.543,0,0,1,10.683,0l.008.007a7.544,7.544,0,0,1,0,10.684l-.008.008a7.546,7.546,0,0,1-10.683,0l-.008-.008a7.547,7.547,0,0,1,0-10.684Zm2.4,8.3a4.194,4.194,0,1,1,2.957,1.22A4.175,4.175,0,0,1,45.685,13.44Z" style="fill: inherit;"/></g></svg>