<svg xmlns="http://www.w3.org/2000/svg" xmlns:xlink="http://www.w3.org/1999/xlink" preserveAspectRatio="xMidYMid meet" version="1.0" viewBox="28.0 12.0 456.0 488.1" zoomAndPan="magnify" style="fill: rgb(0, 97, 253);" original_string_length="3580"><g id="__id423_s6lb0jaw7"><path d="M456,284h-16.8c3.2-6.2,4.8-12.9,4.8-20c0-2.2-1.8-4-4-4h-68v-20c0-2.2,1.8-4,4-4s4,1.8,4,4v8c0,2.2,1.8,4,4,4h16 c2.2,0,4-1.8,4-4v-8c0-15.4-12.6-28-28-28s-28,12.6-28,28v20h-68c-2.2,0-4,1.8-4,4c0,7.1,1.6,13.8,4.8,20H264c-2.2,0-4,1.8-4,4v184 c0,2.2,1.8,4,4,4h4v20c0,2.2,1.8,4,4,4h16c2.2,0,4-1.8,4-4v-20h136v20c0,2.2,1.8,4,4,4h16c2.2,0,4-1.8,4-4v-20h4c2.2,0,4-1.8,4-4 V288C460,285.8,458.2,284,456,284z M356,240c0-11,9-20,20-20s20,9,20,20v4h-8v-4c0-6.6-5.4-12-12-12s-12,5.4-12,12v20h-8V240z M284.2,268h151.6c-0.6,5.7-2.6,11.2-5.9,16H290.1C286.8,279.2,284.8,273.7,284.2,268z M284,492h-8v-16h8V492z M444,492h-8v-16h8 V492z M452,468H268V292h184V468z" style="fill: inherit;"/></g><g id="__id424_s6lb0jaw7"><path d="M276,304v40c0,2.2,1.8,4,4,4h160c2.2,0,4-1.8,4-4v-40c0-2.2-1.8-4-4-4H280C277.8,300,276,301.8,276,304z M284,308h152v32 H284V308z" style="fill: inherit;"/></g><g id="__id425_s6lb0jaw7"><path d="M352,356h-72c-2.2,0-4,1.8-4,4v96c0,2.2,1.8,4,4,4h72c2.2,0,4-1.8,4-4v-96C356,357.8,354.2,356,352,356z M348,452h-64v-88 h64V452z" style="fill: inherit;"/></g><g id="__id426_s6lb0jaw7"><path d="M328,428h8c2.2,0,4-1.8,4-4s-1.8-4-4-4h-4v-24h4c2.2,0,4-1.8,4-4s-1.8-4-4-4h-8c-2.2,0-4,1.8-4,4v32 C324,426.2,325.8,428,328,428z" style="fill: inherit;"/></g><g id="__id427_s6lb0jaw7"><path d="M384,420c-2.2,0-4,1.8-4,4s1.8,4,4,4h8c2.2,0,4-1.8,4-4v-32c0-2.2-1.8-4-4-4h-8c-2.2,0-4,1.8-4,4s1.8,4,4,4h4v24H384z" style="fill: inherit;"/></g><g id="__id428_s6lb0jaw7"><path d="M440,356h-72c-2.2,0-4,1.8-4,4v96c0,2.2,1.8,4,4,4h72c2.2,0,4-1.8,4-4v-96C444,357.8,442.2,356,440,356z M436,452h-64v-88 h64V452z" style="fill: inherit;"/></g><g id="__id429_s6lb0jaw7"><path d="M376,316c-2.2,0-4,1.8-4,4v4h-24v-4c0-2.2-1.8-4-4-4s-4,1.8-4,4v8c0,2.2,1.8,4,4,4h32c2.2,0,4-1.8,4-4v-8 C380,317.8,378.2,316,376,316z" style="fill: inherit;"/></g><g id="__id430_s6lb0jaw7"><path d="M480,180h-20.7c0.4-1.3,0.7-2.6,0.7-4V24c0-6.6-5.4-12-12-12H272c-6.6,0-12,5.4-12,12v152c0,1.4,0.3,2.7,0.7,4H240 c-2.2,0-4,1.8-4,4v16c0,2.2,1.8,4,4,4h240c2.2,0,4-1.8,4-4v-16C484,181.8,482.2,180,480,180z M268,176V24c0-2.2,1.8-4,4-4h176 c2.2,0,4,1.8,4,4v152c0,2.2-1.8,4-4,4H272C269.8,180,268,178.2,268,176z M476,196H244v-8h232V196z" style="fill: inherit;"/></g><g id="__id431_s6lb0jaw7"><path d="M60,248c0,33.1,26.9,60,60,60s60-26.9,60-60v-16c0-33.1-26.9-60-60-60s-60,26.9-60,60V248z M68,232c0-28.7,23.3-52,52-52 s52,23.3,52,52v16c0,28.7-23.3,52-52,52s-52-23.3-52-52V232z" style="fill: inherit;"/></g><g id="__id432_s6lb0jaw7"><path d="M198,172h-31.4c-12.9-10-29-16-46.6-16s-33.7,6-46.6,16H42c-7.7,0-14,6.3-14,14v106c0,10.7,5.3,20.2,13.4,26 c-3.2,2.2-5.4,5.8-5.4,10c0,5.2,3.3,9.6,8,11.3V352c0,27.5,14.7,51.7,36.6,65L76,495.8c-0.1,1.1,0.3,2.2,1.1,3 c0.8,0.8,1.8,1.3,2.9,1.3h80c1.1,0,2.2-0.5,2.9-1.3c0.8-0.8,1.1-1.9,1.1-3l-4.6-78.8c22-13.3,36.6-37.5,36.6-65v-12.7 c4.7-1.7,8-6.1,8-11.3c0-4.2-2.1-7.8-5.4-10c8.1-5.8,13.4-15.3,13.4-26V186C212,178.3,205.7,172,198,172z M204,186v10h-17.1 c-3.2-5.8-7.1-11.2-11.6-16H198C201.3,180,204,182.7,204,186z M188,232v16c0,37.5-30.5,68-68,68s-68-30.5-68-68v-16 c0-37.5,30.5-68,68-68S188,194.5,188,232z M42,180h22.6c-4.5,4.8-8.4,10.2-11.6,16H36v-10C36,182.7,38.7,180,42,180z M36,292v-88 h13.4c-3.5,8.7-5.4,18.1-5.4,28v16c0,29.7,17.2,55.5,42.1,68H60C46.8,316,36,305.2,36,292z M155.8,492H84.2l4.2-70.9 c9.6,4.4,20.3,6.9,31.6,6.9s22-2.5,31.6-6.9L155.8,492z M120,420c-37.5,0-68-30.5-68-68v-12h136v12C188,389.5,157.5,420,120,420z M192,324c2.2,0,4,1.8,4,4s-1.8,4-4,4H48c-2.2,0-4-1.8-4-4s1.8-4,4-4H192z M204,292c0,13.2-10.8,24-24,24h-26.1 c24.9-12.5,42.1-38.3,42.1-68v-16c0-9.9-1.9-19.3-5.4-28H204V292z" style="fill: inherit;"/></g></svg>