<svg xmlns="http://www.w3.org/2000/svg" xmlns:xlink="http://www.w3.org/1999/xlink" preserveAspectRatio="xMidYMid meet" version="1.0" viewBox="98.8 132.8 227.9 159.4" zoomAndPan="magnify" style="fill: rgb(0, 0, 0);" original_string_length="4524"><g id="__id615_sqwejjebkd"><path d="M100.61,233.15c19.64,4.81,38.92,11.06,57.65,18.68c-0.07,8,6.03,15.35,13.65,17.8 c7.62,2.45,16.26,0.42,22.75-4.26c23.4,9.9,47.29,18.66,71.54,26.25c2.02,0.63,4.22,0,5.6-1.6c16.75-19.41,36.61-42.84,53.43-62.34 c1.39-1.61,0.79-4.11-1.18-4.92c-52.8-21.74-106.86-39.66-160.17-57.08c-0.94-0.31-1.92-0.62-2.89-0.45 c-1.3,0.21-2.3,1.21-3.21,2.15c-15.65,16.18-21.49,24.46-37.13,40.64l-20.93,22.11C98.75,231.15,99.25,232.82,100.61,233.15z" style="fill: rgb(0, 74, 173);"/></g><g id="__id616_sqwejjebkd"><path d="M185.24,263.21c-7.11,4.42-15.32,0.81-18.61-6.35c-1.66-3.6-2.29-9.1-5.7-11.14 c-4.56-2.73-10.92-4.05-15.93-5.86c-5.44-1.97-10.27-3.01-15.74-4.9c-1.64-0.57-10.66-3.52-17.55-6.3 c16.32-18.09,33.64-36.16,49.97-54.26c0.9-1,1.91-2.06,3.25-2.23c-0.15,0.15,0.63-0.66,0.48-0.51 c30.61,10.99,103.7,33.38,150.24,52.3c-14.65,17.84-27.36,31.56-49.19,58.06c-0.57,0.7-15.7-5.9-17.47-6.55 c-5.24-1.93-10.49-3.82-15.76-5.66c-6.04-2.1-12.1-4.13-18.17-6.11c-6.34-2.07-13.9-5.55-20.72-4.68 C191.02,259.44,188.13,261.41,185.24,263.21z" stroke="#365fa0" stroke-linecap="round" stroke-linejoin="round" stroke-miterlimit="10" style="fill: rgb(255, 255, 255);"/></g><g id="__id617_sqwejjebkd"><path d="M275.46,266.52c-4.17-0.51-10.64-1.78-14.99-3.77c-3.35-1.53-7.1-4.01-10.42-5.6 c-3.05-1.46-8.72-2.17-12.09-1.94c-13.21,0.93-24.3,2.79-37.51,3.72l-4.07-1.09l1.38,0.41l-4.71-1.39l-11.62-4.19 c-1.06-1.56-3.78-3.66-4.61-4.22c-20.6-13.72-42.52-25-65.1-35.14c6.53-6.62,12.05-12.37,18.53-18.95 c-2.12-1.69-4.29-3.38-6.52-5.08c5.34-5.86,12.24-13.03,17.58-18.89c0.14,0.07-2.42-1.28-4.26-2.25 c14.01-9.17,42.3-20.86,55.21-29.22c2.06,5.29,3.96,11.23,3.96,17.08l0,0c6.59-5.1,19.89-17.43,25.26-22.65 c2.94,14.72,11.07,45.02,11.77,55.46c9.72-8.71,18.89-15.25,28.67-15.37c5.7-0.06,18.28,0.79,24.91,1.6 c-7.06,7.29-14.31,13.63-21.95,19.75c6.96-3.23,14.46-5.72,21.85-7.6c7.01-1.78,8.55-2.88,20.74,2.07 c-6.68,3.35-13.37,6.71-20.05,10.06c6.2,1.23,21.54,4.08,28.19,5.88c-1.43,1.43-2.86,2.87-4.29,4.3c3.13,0.89,6.27,1.79,9.4,2.68 C305.37,231.06,292.52,249.2,275.46,266.52" style="fill: rgb(255, 255, 255);"/></g><g stroke="#365fa0" stroke-linecap="round" stroke-linejoin="round" stroke-miterlimit="10" style="fill: none;"><path d="M181.18,252.67c-1.04-1.94-2.53-2.99-4.36-4.22c-20.6-13.72-42.52-25-65.1-35.14 c6.68-6.78,11.85-12.14,18.53-18.92" style="fill: inherit;"/><path d="M182.41,252.21c-0.51-5.7-6.55-12.63-10.21-17.03c-15.11-18.16-29.7-31.56-48.48-45.9 c5.34-5.86,10.69-11.73,16.03-17.59" style="fill: inherit;"/><path d="M183.48,253.2c1.87-33.84-17.69-67.12-46.44-85.07c14.01-9.17,42.3-20.86,55.21-29.22 c2.06,5.29,3.96,8.93,3.96,14.78" style="fill: inherit;"/><path d="M183.87,253.22c1.26-7.97,1.46-15.1,1.44-23.17c-0.07-20.91-3.84-41.46-3.91-62.37 c10.22-8.6,30.5-25.02,40.06-34.35c3.32,13.3,10.89,42.55,10.86,54.51" style="fill: inherit;"/><path d="M183.48,253.2c58.03-91.59,75.74-79.28,85.41-79.42c6.2-0.09,13.29,1.21,17.92,1.26 c-15.15,15.66-31.17,26.94-50.14,40.95c-17.27,12.74-30.17,24.17-43.63,40.88" style="fill: inherit;"/><path d="M263.23,196.08c7.69-3.88,15.12-6.78,23.48-8.9c7.01-1.78,8.55-2.88,20.74,2.07 c-8.66,4.34-17.31,8.68-25.97,13.03c-11.05,5.54-22.11,11.09-32.76,17.37c-17.04,10.04-38.81,25.2-53.29,38.66" style="fill: inherit;"/><path d="M288.16,199.5c9.28,1.13,18.47,3.04,27.43,5.7c-11.68,11.71-23.36,23.42-35.04,35.13 c-0.68,0.68-1.41,1.39-2.35,1.58c-1.05,0.21-2.09-0.28-3.06-0.71c-13.2-5.71-28.35-1.15-41.98,3.45 c-8.07,2.72-13.91,4.69-21.98,7.42c-5.4,1.82-10.94,3.9-14.8,5.77" style="fill: inherit;"/><path d="M311.29,209.5c3.14,0.9,6.27,1.79,9.41,2.69c-15.32,18.87-28.18,37.01-45.24,54.33 c-7.28-2.67-13.13-7.42-18.19-11.3c-6.75-5.17-16.21-4.05-24.6-2.68c-11.64,1.9-23.28,3.81-34.92,5.71" style="fill: inherit;"/><path d="M198.42,258.92c13.21-0.93,26.32-2.78,39.53-3.71c3.37-0.24,9.04,0.48,12.09,1.94 c3.33,1.59,7.07,4.06,10.42,5.6c5.2,2.38,9.9,3.39,14.99,3.77" style="fill: inherit;"/></g><path d="M162.05,246.51c9.34,2.28,22.58,7.15,33.39,12.41" stroke="#365fa0" stroke-linecap="round" stroke-linejoin="round" stroke-miterlimit="10" style="fill: none;"/><path d="M117.42,227.47c2.36-2.53,4.72-5.06,7.09-7.59" stroke="#365fa0" stroke-linecap="round" stroke-linejoin="round" stroke-miterlimit="10" style="fill: none;"/><path d="M115.89,215.21c5.07-5.7,11.81-12.46,18.07-17.21" stroke="#365fa0" stroke-linecap="round" stroke-linejoin="round" stroke-miterlimit="10" style="fill: none;"/><path d="M165.91,249.05c0.24,3.47,2.88,7.87,5.32,10.35s4.65,3.03,8.12,3.33" stroke="#365fa0" stroke-linecap="round" stroke-linejoin="round" stroke-miterlimit="10" style="fill: none;"/></svg>